<svg width="93" height="81" viewBox="0 0 93 81" fill="none" xmlns="http://www.w3.org/2000/svg">
<path d="M58.6727 34.6445H55.4047C55.202 36.1786 53.8847 37.3547 52.314 37.3547V40.6274C55.6833 40.6274 58.4447 37.9939 58.6727 34.6445Z" fill="#242424"/>
<path d="M58.6727 33.775C58.47 30.4256 55.6833 27.7666 52.314 27.7666V31.0393C53.91 31.0393 55.2273 32.2409 55.43 33.775H58.6727Z" fill="#242424"/>
<path d="M58.6727 43.4137C58.47 40.0643 55.6833 37.4053 52.314 37.4053V40.6779C53.91 40.6779 55.2273 41.8796 55.43 43.4137H58.6727Z" fill="#242424"/>
<path d="M58.6727 44.2832H55.4047C55.202 45.8173 53.8847 46.9934 52.314 46.9934V50.266C55.6833 50.266 58.4447 47.6326 58.6727 44.2832Z" fill="#242424"/>
<path d="M35.3404 0C32.0217 0.204541 29.387 3.01698 29.387 6.41748H32.6297C32.6297 4.80672 33.8204 3.4772 35.3404 3.27266V0Z" fill="#242424"/>
<path d="M51.4527 27.8176C48.134 28.0477 45.4993 30.8346 45.4993 34.2351H48.742C48.742 32.6243 49.9327 31.3204 51.4527 31.0903V27.8176Z" fill="#242424"/>
<path d="M36.1765 0V3.29823C37.6965 3.50277 38.8619 4.83229 38.8619 6.41748H42.1046C42.1299 3.01698 39.4952 0.230109 36.1765 0Z" fill="#242424"/>
<path d="M52.238 8.87207V12.1703C53.7581 12.3748 54.9234 13.7044 54.9234 15.2896H58.1661C58.1915 11.8635 55.5568 9.07661 52.238 8.87207Z" fill="#242424"/>
<path d="M36.1511 22.6785C39.4698 22.4739 42.1045 19.6615 42.1045 16.261H38.8618C38.8618 17.8717 37.6711 19.2013 36.1511 19.4058V22.6785Z" fill="#242424"/>
<path d="M35.3152 22.6529V19.3802C33.7952 19.1757 32.6299 17.8462 32.6299 16.261H29.3871C29.3618 19.6615 31.9965 22.4484 35.3152 22.6529Z" fill="#242424"/>
<path d="M22.4203 0.460205H19.2029V22.1416H22.4203V0.460205Z" fill="#242424"/>
<path d="M32.6298 9.63892H23.231V12.886H32.6298V9.63892Z" fill="#242424"/>
<path d="M58.1916 0.460205H45.4487V3.7073H58.1916V0.460205Z" fill="#242424"/>
<path d="M42.1045 9.63892H38.8618V12.886H42.1045V9.63892Z" fill="#242424"/>
<path d="M52.9981 8.87207H49.7554V12.1192H52.9981V8.87207Z" fill="#242424"/>
<path d="M35.3152 27.6899C31.9965 27.8945 29.3618 30.7069 29.3618 34.1074H32.6045C32.6045 32.4967 33.7952 31.1671 35.3152 30.9626V27.6899Z" fill="#242424"/>
<path d="M36.1765 27.6899V30.9882C37.6965 31.1927 38.8619 32.5222 38.8619 34.1074H42.1046C42.1046 30.7069 39.4699 27.9201 36.1765 27.6899Z" fill="#242424"/>
<path d="M36.1511 50.4961C39.4698 50.2916 42.1045 47.4791 42.1045 44.0786H38.8618C38.8618 45.6894 37.6711 47.0189 36.1511 47.2234V50.4961Z" fill="#242424"/>
<path d="M35.2899 50.4961V47.1979C33.7699 46.9933 32.6045 45.6638 32.6045 44.0786H29.3618C29.3618 47.4791 31.9712 50.266 35.2899 50.4961Z" fill="#242424"/>
<path d="M42.1045 35.0276H38.8618V43.1325H42.1045V35.0276Z" fill="#242424"/>
<path d="M48.7671 33.3403H45.5244V36.5874H48.7671V33.3403Z" fill="#242424"/>
<path d="M48.7671 41.522H45.5244V44.7691H48.7671V41.522Z" fill="#242424"/>
<path d="M54.0621 37.3289H45.3979V40.5759H54.0621V37.3289Z" fill="#242424"/>
<path d="M32.6045 35.0276H29.3618V43.1325H32.6045V35.0276Z" fill="#242424"/>
<path d="M48.6914 4.67896H45.4487V12.068H48.6914V4.67896Z" fill="#242424"/>
<path d="M51.4525 50.3684V47.0702C49.9325 46.8656 48.7671 45.5361 48.7671 43.9509H45.5244C45.5244 47.3514 48.1338 50.1383 51.4525 50.3684Z" fill="#242424"/>
<path d="M73.2904 34.644H70.0223C69.8197 36.1781 68.5023 37.3542 66.9316 37.3542V40.6269C70.301 40.6269 73.0624 37.9934 73.2904 34.644Z" fill="#242424"/>
<path d="M73.2904 43.4137C73.0877 40.0643 70.301 37.4053 66.9316 37.4053V40.6779C68.5277 40.6779 69.845 41.8796 70.0477 43.4137H73.2904Z" fill="#242424"/>
<path d="M65.2088 28.1501H61.9661V36.5875H65.2088V28.1501Z" fill="#242424"/>
<path d="M65.2088 41.522H61.9661V49.857H65.2088V41.522Z" fill="#242424"/>
<path d="M68.4264 37.3289H61.8396V40.5759H68.4264V37.3289Z" fill="#242424"/>
<path d="M81.625 33.3403H78.3823V36.5874H81.625V33.3403Z" fill="#242424"/>
<path d="M91.1253 33.3403H87.8826V36.5874H91.1253V33.3403Z" fill="#242424"/>
<path d="M91.1253 41.394H87.8826V44.6411H91.1253V41.394Z" fill="#242424"/>
<path d="M84.3357 27.6899C81.017 27.9201 78.3823 30.7069 78.3823 34.1074H81.625C81.625 32.4967 82.8157 31.1927 84.3357 30.9626V27.6899Z" fill="#242424"/>
<path d="M85.197 27.6899V30.9882C86.717 31.1927 87.8824 32.5222 87.8824 34.1074H91.1251C91.1251 30.7069 88.5157 27.9201 85.197 27.6899Z" fill="#242424"/>
<path d="M76.1023 27.6387C72.7836 27.8432 70.1489 30.6557 70.1489 34.0561H73.3916C73.3916 32.4454 74.5823 31.1414 76.1023 30.9113V27.6387Z" fill="#242424"/>
<path d="M76.1023 50.4961C72.7836 50.2916 70.1489 47.4791 70.1489 44.0786H73.3916C73.3916 45.6894 74.5823 47.0189 76.1023 47.2234V50.4961Z" fill="#242424"/>
<path d="M91.1251 43.823H87.9077V49.8314H91.1251V43.823Z" fill="#242424"/>
<path d="M81.625 41.394H78.3823V44.6411H81.625V41.394Z" fill="#242424"/>
<path d="M81.6253 43.823H78.408V49.8314H81.6253V43.823Z" fill="#242424"/>
<path d="M91.1252 37.3289H78.3823V40.5759H91.1252V37.3289Z" fill="#242424"/>
<path d="M6.00419 5.625H2.76147V8.87209H6.00419V5.625Z" fill="#242424"/>
<path d="M15.5044 5.625H12.2617V8.87209H15.5044V5.625Z" fill="#242424"/>
<path d="M32.6045 5.625H29.3618V8.87209H32.6045V5.625Z" fill="#242424"/>
<path d="M42.1299 5.625H38.8872V8.87209H42.1299V5.625Z" fill="#242424"/>
<path d="M32.6045 13.7043H29.3618V16.9514H32.6045V13.7043Z" fill="#242424"/>
<path d="M42.1299 13.7043H38.8872V16.9514H42.1299V13.7043Z" fill="#242424"/>
<path d="M52.238 22.6785C55.5568 22.4739 58.1915 19.6615 58.1915 16.261H54.9487C54.9487 17.8717 53.7581 19.2013 52.238 19.4058V22.6785Z" fill="#242424"/>
<path d="M51.3768 22.6529V19.3802C49.8568 19.1757 48.6914 17.8462 48.6914 16.261H45.4487C45.4487 19.6615 48.0581 22.4484 51.3768 22.6529Z" fill="#242424"/>
<path d="M48.6914 12.9373H45.4487V16.9514H48.6914V12.9373Z" fill="#242424"/>
<path d="M6.00419 9.9458H2.76147V16.9513H6.00419V9.9458Z" fill="#242424"/>
<path d="M8.71489 0C5.39618 0.230109 2.76147 3.01698 2.76147 6.41748H6.00419C6.00419 4.80672 7.19487 3.50277 8.71489 3.27266V0Z" fill="#242424"/>
<path d="M9.57617 0V3.29823C11.0962 3.50277 12.2615 4.83229 12.2615 6.41748H15.5043C15.5043 3.01698 12.8949 0.230109 9.57617 0Z" fill="#242424"/>
<path d="M0.0256348 22.5251C3.34435 22.3206 5.97905 19.5337 5.97905 16.1077H2.73634C2.73634 17.7184 1.54566 19.0224 0.0256348 19.2525V22.5251Z" fill="#242424"/>
<path d="M15.5042 9.9458H12.2869V22.1416H15.5042V9.9458Z" fill="#242424"/>
<path d="M65.1329 11.2244L61.9155 15.5454V0.460449H65.1329V11.2244Z" fill="#242424"/>
<path d="M74.8104 22.1929H71.593V11.7101L74.8104 7.59375V22.1929Z" fill="#242424"/>
<path d="M74.8104 0.0253906L61.9155 17.5392V22.7806L74.8104 5.3946V0.0253906Z" fill="#242424"/>
<path d="M15.3778 39.1953L12.1604 43.235V38.9908L15.3778 34.6443V39.1953Z" fill="#242424"/>
<path d="M25.6883 49.8824H22.4709V38.8883L25.6883 35.0276V49.8824Z" fill="#242424"/>
<path d="M25.6886 27.7153L12.1604 45.2292V50.4706L25.6886 33.0845V27.7153Z" fill="#242424"/>
<path d="M15.3775 27.7153L0 45.2292V50.4706L15.3775 33.0845V27.7153Z" fill="#242424"/>
<path d="M70.1493 55.0728C65.5132 55.3796 61.8398 59.2659 61.8398 64.0214H66.3746C66.3746 61.7971 68.0213 59.9306 70.1746 59.6494V55.0728H70.1493Z" fill="#242424"/>
<path d="M71.3398 55.0728V59.6494C73.4679 59.9562 75.0892 61.7971 75.0892 64.0214H79.6239C79.6239 59.2659 75.9506 55.3796 71.3398 55.0728Z" fill="#242424"/>
<path d="M83.4745 55.0728C78.8384 55.3796 75.165 59.2659 75.165 64.0214H79.6998C79.6998 61.7971 81.3465 59.9306 83.4998 59.6494V55.0728H83.4745Z" fill="#242424"/>
<path d="M84.6653 55.0728V59.6494C86.7933 59.9562 88.4147 61.7971 88.4147 64.0214H92.9494C92.9494 59.2659 89.3013 55.3796 84.6653 55.0728Z" fill="#242424"/>
<path d="M76.8371 75.5784C74.6078 74.479 66.9317 70.2859 66.577 65.249H61.8396C62.1943 72.7659 73.9998 78.9789 76.8118 80.3595V75.5784H76.8371Z" fill="#242424"/>
<path d="M88.288 65.2485C87.9586 70.2854 80.2572 74.4785 78.0278 75.5779V80.359C80.8399 78.9784 92.6707 72.7654 93 65.2485H88.288Z" fill="#242424"/>
</svg>
